<svg id="Layer_1" data-name="Layer 1" xmlns="http://www.w3.org/2000/svg" viewBox="0 0 2471 1346.86"><defs><style>.cls-1{fill:#868686;}.cls-2{fill:#477efc;}.cls-3{fill:#fe0000;}.cls-4{fill:#fff;}.cls-5{font-size:215.5px;font-family:TimesNewRomanPS-BoldMT, Times New Roman;font-weight:700;letter-spacing:-0.01em;}</style></defs><path class="cls-1" d="M1731.17,526.24q725,49.44,729,133.33,2.91,60.81-372.88,139.69Q2270,731.34,2266.26,676,2260,583.43,1731.17,526.24Z"/><path class="cls-1" d="M730.27,526.24q-725,49.44-729,133.33-2.89,60.81,372.89,139.69Q191.44,731.34,195.18,676,201.45,583.43,730.27,526.24Z"/><path class="cls-2" d="M594.85,0H983.59a150,150,0,0,1,150,150V538.74a0,0,0,0,1,0,0H744.85a150,150,0,0,1-150-150V0A0,0,0,0,1,594.85,0Z"/><path class="cls-3" d="M1133.59,538.74h608.11a200,200,0,0,1,200,200v608.11a0,0,0,0,1,0,0H1333.59a200,200,0,0,1-200-200V538.74A0,0,0,0,1,1133.59,538.74Z"/><circle class="cls-4" cx="1821.55" cy="1226.7" r="93.22"/><path d="M689.56,473V850.8H609.1V473Z"/><path d="M752.31,850.8V675.22q0-46.17,27.65-73.91t73.62-27.75q45.78,0,70,27T947.91,678V850.8H867.45V678q0-24.76-17.64-24.77-17,0-17,24.77V850.8Z"/><path d="M1091.52,658V850.8h-80.46V580.3H1115.9q69,0,108,31.31,46.38,37.46,46.37,101.66,0,61.44-39.63,100.28t-102.06,38.84q-7.33,0-24-.79V772.13h12.88q70.35,0,70.35-58.86,0-55.29-69.16-55.29Z"/><path d="M1466.6,685.53v60.24h-52.52q-10.69,0-15.16,3.17t-4.46,10.71q0,8.52,4.56,11.19t18.63,2.68h54.1V850.8h-63.21q-44.6,0-68.18-21.3T1316.78,768V662q0-38.85,22.29-60.25t62.73-21.4h70V658h-51.32q-20.82,0-20.81,13.48,0,7.92,5,11t17.64,3.07Z"/><path d="M1612.59,653V850.8h-80.46V580.3h103.25q47.16,0,73.13,23.38,28.92,26.16,28.93,66.39,0,41-35.87,69.16l46.37,111.57h-84.42l-39-87.19V694.05h6.34q25.37,0,25.37-21.8,0-19.21-29.33-19.22Z"/><path d="M1887.19,715.06V786.4H1864v64.4h-80.46v-172q0-49.93,27.25-77.58t76.59-27.65q47.56,0,70.35,25.07T1980.53,676V850.8h-80.46V681.37q0-15.86-3.76-22t-13.48-6.14q-18.82,0-18.82,28.14v33.69Z"/><text class="cls-5" transform="translate(77.48 1267.14)">Sejak 1974</text></svg>